<svg width="649" height="467" viewBox="0 0 649 467" fill="none" xmlns="http://www.w3.org/2000/svg">
<path d="M0 208.562L266.544 208.096L410.272 46.3014L157.995 46.0557L0 208.562Z" fill="#6EEA94"/>
<path d="M184.752 38.6781L171.601 10.4099L158.454 38.6781H165.027L158.454 52.808H184.752L178.178 38.6781H184.752Z" fill="#6EEA94"/>
<path d="M185.913 53.5537H157.291L163.865 39.4404H157.291L171.604 8.67285L185.913 39.4404H179.34L185.913 53.5537ZM159.616 52.0665H183.61L177.032 37.9325H183.61L171.625 12.172L159.616 37.9325H166.193L159.616 52.0665Z" fill="#534CF7"/>
<path d="M174.495 75.9649L173 32.3587C172.98 32.0013 172.824 31.6649 172.564 31.4187C172.305 31.1726 171.96 31.0354 171.602 31.0354C171.244 31.0354 170.9 31.1726 170.64 31.4187C170.38 31.6649 170.224 32.0013 170.205 32.3587L168.709 75.9774C168.692 76.0974 168.684 76.2185 168.684 76.3398C168.684 77.1131 168.991 77.8548 169.538 78.4017C170.085 78.9485 170.827 79.2557 171.6 79.2557C172.373 79.2557 173.115 78.9485 173.662 78.4017C174.209 77.8548 174.516 77.1131 174.516 76.3398C174.518 76.2145 174.511 76.0892 174.495 75.9649Z" fill="white"/>
<path d="M171.604 79.9891C170.634 79.988 169.703 79.6019 169.017 78.9154C168.33 78.229 167.944 77.2983 167.943 76.3275C167.944 76.1757 167.954 76.0241 167.972 75.8734L169.447 32.3214C169.474 31.7705 169.713 31.2513 170.114 30.8721C170.514 30.493 171.046 30.2832 171.598 30.2864C172.149 30.2896 172.678 30.5057 173.075 30.8894C173.471 31.2732 173.704 31.7952 173.725 32.3464L175.22 75.9068C175.237 76.045 175.245 76.1841 175.245 76.3233C175.246 77.2916 174.864 78.2209 174.182 78.9078C173.499 79.5948 172.573 79.9836 171.604 79.9891ZM171.604 31.6924C171.431 31.6924 171.265 31.7613 171.142 31.884C171.019 32.0066 170.95 32.173 170.95 32.3464L169.447 75.9901C169.432 76.102 169.424 76.2146 169.422 76.3275C169.446 76.8883 169.686 77.418 170.092 77.8061C170.497 78.1942 171.037 78.4109 171.598 78.4109C172.16 78.4109 172.699 78.1942 173.105 77.8061C173.51 77.418 173.75 76.8883 173.775 76.3275C173.775 76.2358 173.775 76.1442 173.775 76.0567V75.9901L172.258 32.3589C172.26 32.184 172.191 32.0157 172.069 31.8908C171.946 31.7659 171.779 31.6946 171.604 31.6924Z" fill="#534CF7"/>
<path d="M215.873 20.9616C215.873 18.4333 215.176 15.9539 213.859 13.7961C212.541 11.6383 210.654 9.88578 208.404 8.73118C208.528 8.23386 208.591 7.72328 208.592 7.21072C208.595 6.29438 208.404 5.38773 208.031 4.55081C207.658 3.71389 207.111 2.96579 206.427 2.35606C205.743 1.74633 204.937 1.28889 204.063 1.014C203.189 0.739122 202.266 0.653072 201.357 0.761571C200.447 0.870069 199.57 1.17063 198.785 1.64335C198 2.11608 197.325 2.75018 196.803 3.50366C196.282 4.25715 195.926 5.11282 195.76 6.01402C195.594 6.91522 195.622 7.84138 195.841 8.73118C193.951 9.70189 192.313 11.0972 191.053 12.8076C189.794 14.518 188.948 16.4969 188.582 18.5891C188.216 20.6814 188.34 22.83 188.944 24.8664C189.547 26.9027 190.615 28.7715 192.062 30.326C190.238 32.2852 189.025 34.7345 188.573 37.3733C188.121 40.012 188.449 42.7253 189.518 45.1801C190.586 47.6349 192.348 49.7243 194.587 51.1918C196.826 52.6593 199.445 53.441 202.122 53.441C204.8 53.441 207.419 52.6593 209.658 51.1918C211.897 49.7243 213.659 47.6349 214.727 45.1801C215.795 42.7253 216.124 40.012 215.672 37.3733C215.22 34.7345 214.007 32.2852 212.183 30.326C214.557 27.7863 215.877 24.4384 215.873 20.9616Z" fill="#6EEA94"/>
<path d="M202.122 54.1869C199.357 54.1876 196.65 53.3971 194.32 51.9088C191.99 50.4205 190.134 48.2966 188.972 45.7878C187.81 43.2789 187.39 40.49 187.762 37.7502C188.134 35.0105 189.282 32.4344 191.071 30.326C189.689 28.6989 188.684 26.7864 188.128 24.7254C187.572 22.6644 187.479 20.506 187.856 18.4048C188.232 16.3036 189.068 14.3115 190.304 12.5715C191.541 10.8314 193.147 9.38625 195.007 8.33965C194.945 7.96658 194.913 7.58904 194.911 7.21076C194.911 5.29835 195.671 3.46426 197.023 2.11198C198.376 0.759701 200.21 0 202.122 0C204.035 0 205.869 0.759701 207.221 2.11198C208.573 3.46426 209.333 5.29835 209.333 7.21076C209.333 7.58892 209.302 7.96645 209.241 8.33965C211.101 9.38658 212.707 10.8316 213.943 12.5714C215.179 14.3112 216.016 16.3027 216.393 18.4035C216.77 20.5043 216.678 22.6625 216.124 24.7236C215.569 26.7847 214.566 28.6978 213.186 30.326C214.973 32.4352 216.12 35.0115 216.491 37.751C216.861 40.4905 216.441 43.2789 215.279 45.7872C214.116 48.2955 212.261 50.4191 209.931 51.9074C207.602 53.3957 204.895 54.1867 202.13 54.1869H202.122ZM202.122 1.48297C200.604 1.48518 199.149 2.08948 198.076 3.16329C197.003 4.2371 196.4 5.69272 196.399 7.21076C196.4 7.66432 196.456 8.11605 196.565 8.55626L196.698 9.12697L196.182 9.39356C194.396 10.3113 192.848 11.6302 191.658 13.2468C190.467 14.8633 189.668 16.7337 189.321 18.7111C188.975 20.6885 189.092 22.7192 189.662 24.6441C190.232 26.5689 191.24 28.3355 192.608 29.8053L193.078 30.3093L192.608 30.8176C190.88 32.6713 189.731 34.9893 189.302 37.4868C188.874 39.9844 189.184 42.5528 190.194 44.8766C191.205 47.2004 192.873 49.1784 194.992 50.5677C197.111 51.957 199.59 52.6971 202.124 52.6971C204.658 52.6971 207.137 51.957 209.257 50.5677C211.376 49.1784 213.043 47.2004 214.054 44.8766C215.065 42.5528 215.375 39.9844 214.946 37.4868C214.517 34.9893 213.368 32.6713 211.641 30.8176L211.17 30.3093L211.641 29.8053C213.008 28.3355 214.016 26.5689 214.587 24.6441C215.157 22.7192 215.273 20.6885 214.927 18.7111C214.581 16.7337 213.781 14.8633 212.591 13.2468C211.401 11.6302 209.852 10.3113 208.067 9.39356L207.55 9.12697L207.683 8.56043C207.892 7.71767 207.907 6.83829 207.725 5.98926C207.542 5.14022 207.169 4.34393 206.633 3.66101C206.096 2.97809 205.411 2.42654 204.63 2.04838C203.848 1.67022 202.99 1.47542 202.122 1.4788V1.48297Z" fill="#534CF7"/>
<path d="M205.168 68.5752L203.605 22.7279C203.585 22.352 203.422 21.9981 203.149 21.7391C202.876 21.4801 202.513 21.3357 202.137 21.3357C201.761 21.3357 201.398 21.4801 201.125 21.7391C200.852 21.9981 200.689 22.352 200.669 22.7279L199.094 68.5752C199.077 68.7009 199.069 68.8275 199.069 68.9543C199.098 69.7484 199.434 70.5002 200.006 71.0517C200.579 71.6032 201.342 71.9113 202.137 71.9113C202.932 71.9113 203.695 71.6032 204.268 71.0517C204.84 70.5002 205.176 69.7484 205.205 68.9543C205.199 68.8274 205.186 68.7009 205.168 68.5752Z" fill="white"/>
<path d="M202.122 72.7659C201.112 72.7637 200.145 72.3613 199.431 71.6468C198.717 70.9323 198.316 69.9641 198.315 68.9543C198.316 68.797 198.326 68.6398 198.344 68.4836L199.914 22.703C199.942 22.1335 200.189 21.5967 200.603 21.2046C201.017 20.8125 201.566 20.5954 202.136 20.5987C202.706 20.6019 203.253 20.8252 203.663 21.2219C204.072 21.6186 204.313 22.1582 204.334 22.728L205.905 68.5169C205.923 68.662 205.933 68.8081 205.934 68.9543C205.933 69.9649 205.531 70.9337 204.816 71.6483C204.102 72.3628 203.133 72.7648 202.122 72.7659ZM202.122 22.0031C201.93 22.0031 201.746 22.0795 201.61 22.2154C201.474 22.3513 201.397 22.5357 201.397 22.728L199.823 68.6002C199.808 68.7177 199.8 68.8359 199.798 68.9543C199.823 69.5543 200.079 70.1213 200.513 70.5368C200.946 70.9524 201.524 71.1844 202.124 71.1844C202.725 71.1844 203.302 70.9524 203.736 70.5368C204.169 70.1213 204.425 69.5543 204.451 68.9543C204.451 68.8543 204.451 68.7627 204.451 68.6669V68.6002L202.876 22.7529C202.878 22.6535 202.861 22.5546 202.823 22.4623C202.786 22.37 202.731 22.2863 202.66 22.2161C202.59 22.146 202.506 22.0909 202.413 22.0543C202.321 22.0177 202.222 22.0003 202.122 22.0031Z" fill="#534CF7"/>
<path d="M298.944 46.3013L159.594 208.096H330.887L466.296 46.3013H298.944Z" fill="#9DE9ED"/>
<path d="M331.674 23.0111V4.94458H319.786L176.945 163.944V177.69C171.673 179.888 167.17 183.597 164.003 188.35C160.837 193.104 159.149 198.689 159.154 204.401C159.154 205.35 159.203 206.292 159.291 207.217H216.823L357.622 46.0305C357.622 46.0305 358.389 19.6244 331.674 23.0111Z" fill="#6793D0"/>
<path d="M215.169 208.229H158.616L158.553 207.558C158.461 206.621 158.416 205.688 158.416 204.788C158.406 199.246 160.018 193.821 163.052 189.183C166.087 184.545 170.412 180.897 175.495 178.686V165.243H192.128V176.803C198.673 178.001 204.587 181.461 208.837 186.579C213.088 191.698 215.402 198.148 215.377 204.801C215.377 205.704 215.331 206.638 215.239 207.571L215.169 208.229ZM159.965 206.742H213.811C213.861 206.084 213.886 205.43 213.886 204.788C213.908 198.38 211.641 192.175 207.492 187.292C203.343 182.409 197.585 179.169 191.258 178.157L190.637 178.053V166.722H176.974V179.677L176.515 179.869C171.588 181.911 167.378 185.371 164.419 189.809C161.46 194.246 159.885 199.463 159.894 204.796C159.894 205.425 159.919 206.067 159.965 206.742Z" fill="#534CF7"/>
<path d="M176.682 166.043L175.524 165.002L319.852 4.78223H332.957V23.0861H331.395V6.34018H320.543L176.682 166.043Z" fill="#534CF7"/>
<path d="M215.169 208.229L214.019 207.221L356.201 45.5348C356.276 44.6767 356.318 43.8227 356.318 42.9938C356.318 36.7453 353.469 31.2008 348.295 27.3642C343.188 23.5776 336.706 22.228 331.382 23.8442L331.928 22.1072C337.502 20.7908 344.029 22.2904 349.211 26.1312C351.879 28.0619 354.052 30.5959 355.553 33.5265C357.055 36.457 357.842 39.701 357.851 42.9938C357.851 43.9519 357.805 44.935 357.709 45.9097L357.684 46.1555L357.522 46.3388L215.169 208.229Z" fill="#534CF7"/>
<path d="M331.491 21.7834L190.856 176.72L192.015 177.772L332.651 22.8361L331.491 21.7834Z" fill="#534CF7"/>
<path d="M140.916 108.291V78.6519L186.338 78.656V108.382L140.916 108.291Z" fill="white"/>
<path d="M186.343 109.124L140.937 109.036L140.196 108.291V78.6519L140.941 77.9104H186.347L187.089 78.6519V108.374L186.343 109.124ZM141.662 107.549L185.601 107.637V79.3975H141.662V107.549Z" fill="#544DF7"/>
<path d="M154.275 58.3484H198.631L186.338 79.2475H140.528L154.275 58.3484Z" fill="#6793D0"/>
<path d="M186.342 79.989H140.52L139.9 78.8393L153.646 57.9402L154.267 57.6069H198.631L199.273 58.7233L186.98 79.6225L186.342 79.989ZM141.907 78.5019H185.918L197.357 59.0899H154.679L141.907 78.5019Z" fill="#534CF7"/>
<path d="M208.249 88.6327V62.5598L198.402 57.9692L186.338 78.6559L185.801 108.428L208.249 88.6327Z" fill="white"/>
<path d="M186.343 109.124L185.06 108.416L185.601 78.6436L185.701 78.2811L197.781 57.5986H199.056L208.908 62.1434L209.016 62.5308V87.9413L208.546 88.6286L186.343 109.124ZM187.08 78.8602L186.567 107.341L207.508 87.4539L207.354 63.4597L198.648 59.4898L187.08 78.8602Z" fill="#534CF7"/>
<path d="M200.235 85.8001L193.82 88.0079V78.9226L200.235 76.719V85.8001Z" fill="white"/>
<path d="M193.241 90.0158L193.078 78.3936L200.993 73.1782V83.8298L193.241 90.0158ZM194.566 79.4517V86.9499L199.494 83.5007V76.0025L194.566 79.4517Z" fill="#534CF7"/>
<path d="M154.009 94.0106C154.009 91.6905 154.931 89.4654 156.571 87.8249C158.212 86.1843 160.437 85.2627 162.757 85.2627C165.077 85.2627 167.302 86.1843 168.943 87.8249C170.583 89.4654 171.505 91.6905 171.505 94.0106V108.29" fill="white"/>
<path d="M172.254 108.291H170.771V94.0106C170.723 91.9183 169.859 89.9277 168.362 88.4648C166.865 87.0018 164.856 86.1827 162.763 86.1827C160.67 86.1827 158.66 87.0018 157.163 88.4648C155.667 89.9277 154.802 91.9183 154.754 94.0106H153.267C153.267 91.4928 154.267 89.0781 156.048 87.2977C157.828 85.5173 160.243 84.5171 162.761 84.5171C165.278 84.5171 167.693 85.5173 169.474 87.2977C171.254 89.0781 172.254 91.4928 172.254 94.0106V108.291Z" fill="#534CF7"/>
<path d="M154.75 94.0107H153.267V107.895H154.75V94.0107Z" fill="#544DF7"/>
<path d="M82.9466 31.459H125.636L92.2652 53.2912H45.5806L82.9466 31.459Z" fill="white"/>
<path d="M92.2653 54.0203L45.1934 53.9703L44.7768 52.4374L82.551 30.8051L82.9259 30.7009H125.636L126.053 32.0673L92.6777 53.8995L92.2653 54.0203ZM48.3259 52.5373H92.0654L123.166 32.1881H83.1759L48.3259 52.5373Z" fill="#534CF7"/>
<path d="M154.433 108.495V19.7827L120.658 41.6149L118.771 132.264L154.433 108.495Z" fill="white"/>
<path d="M119.184 132.885L118.03 132.251L119.917 41.6025L120.258 40.9943L153.692 20.041L154.583 19.7827L155.179 108.511L154.846 109.128L119.184 132.885ZM121.396 42.0273L119.542 130.86L153.7 108.095V21.1449L121.396 42.0273Z" fill="#544DF7"/>
<path d="M92.2652 91.3279V53.2913H45.5806V184.984H90.1782L92.2652 53.2913" fill="white"/>
<path d="M90.9116 185.73H44.8394V52.5498H93.007V91.3279H92.4071L90.9116 185.73ZM46.3391 184.243H89.4662L91.549 54.0328H46.3266L46.3391 184.243Z" fill="#534CF7"/>
<path d="M59.715 75.3818H52.4418V61.2185H59.715V75.3818ZM53.9247 73.8988H58.2237V62.7181H53.9247V73.8988Z" fill="#534CF7"/>
<path d="M72.5615 75.3818H65.3049V61.2185H72.5781L72.5615 75.3818ZM66.7712 73.8988H71.0743V62.7181H66.7712V73.8988Z" fill="#534CF7"/>
<path d="M85.5421 75.2651H78.2689V61.1018H85.5421V75.2651ZM79.756 73.7821H84.0508V62.6014H79.756V73.7821Z" fill="#534CF7"/>
<path d="M59.715 94.5021H52.4418V80.3389H59.715V94.5021ZM53.9247 93.0191H58.2237V81.8343H53.9247V93.0191Z" fill="#534CF7"/>
<path d="M72.5615 94.5021H65.3049V80.3389H72.5781L72.5615 94.5021ZM66.7712 93.0191H71.0743V81.8343H66.7712V93.0191Z" fill="#534CF7"/>
<path d="M85.5421 94.3815H78.2689V80.2183H85.5421V94.3815ZM79.756 92.8985H84.0508V81.7179H79.756V92.8985Z" fill="#534CF7"/>
<path d="M59.715 114.006H52.4418V99.8425H59.715V114.006ZM53.9247 112.519H58.2237V101.342H53.9247V112.519Z" fill="#544DF7"/>
<path d="M72.5615 114.006H65.3049V99.8425H72.5781L72.5615 114.006ZM66.7712 112.519H71.0743V101.342H66.7712V112.519Z" fill="#544DF7"/>
<path d="M85.5421 113.889H78.2689V99.7258H85.5421V113.889ZM79.756 112.406H84.0508V101.221H79.756V112.406Z" fill="#544DF7"/>
<path d="M59.715 133.126H52.4418V118.963H59.715V133.126ZM53.9247 131.643H58.2237V120.463H53.9247V131.643Z" fill="#534CF7"/>
<path d="M72.5615 133.126H65.3049V118.963H72.5781L72.5615 133.126ZM66.7712 131.643H71.0743V120.463H66.7712V131.643Z" fill="#534CF7"/>
<path d="M85.5421 133.01H78.2689V118.846H85.5421V133.01ZM79.756 131.523H84.0508V120.342H79.756V131.523Z" fill="#534CF7"/>
<path d="M59.715 152.547H52.4418V138.383H59.715V152.547ZM53.9247 151.08H58.2237V139.883H53.9247V151.08Z" fill="#534CF7"/>
<path d="M72.5615 152.547H65.3049V138.383H72.5781L72.5615 152.547ZM66.7712 151.08H71.0743V139.883H66.7712V151.08Z" fill="#534CF7"/>
<path d="M59.715 171.667H52.4418V157.504H59.715V171.667ZM53.9247 170.184H58.2237V158.995H53.9247V170.184Z" fill="#534CF7"/>
<path d="M72.5615 171.667H65.3049V157.504H72.5781L72.5615 171.667ZM66.7712 170.184H71.0743V158.995H66.7712V170.184Z" fill="#534CF7"/>
<path d="M91.6071 41.615V143.878L123.374 143.907V41.615H91.6071Z" fill="white"/>
<path d="M123.375 144.648L91.6075 144.619L90.866 143.878V41.615L91.9574 40.8735H123.375L124.116 41.615V143.907L123.375 144.648ZM92.349 143.136L122.633 143.166V42.3565H92.349V143.136Z" fill="#534CF7"/>
<path d="M116.397 81.1388H96.3765V46.0015H116.397V81.1388ZM97.8594 79.6558H114.914V47.4844H97.8594V79.6558Z" fill="#534CF7"/>
<path d="M116.397 123.479H96.3765V88.3413H116.397V123.479ZM97.8594 121.996H114.914V89.8451H97.8594V121.996Z" fill="#534CF7"/>
<path d="M115.656 53.9619H97.1185V55.4449H115.656V53.9619Z" fill="#534CF7"/>
<path d="M115.656 61.9226H97.1185V63.4056H115.656V61.9226Z" fill="#534CF7"/>
<path d="M115.656 69.5208H97.1185V71.0037H115.656V69.5208Z" fill="#534CF7"/>
<path d="M115.656 97.0266H97.1185V98.5096H115.656V97.0266Z" fill="#534CF7"/>
<path d="M115.656 105.166H97.1185V106.649H115.656V105.166Z" fill="#534CF7"/>
<path d="M115.656 112.406H97.1185V113.889H115.656V112.406Z" fill="#534CF7"/>
<path d="M123.374 20.4202H154.434L123.02 41.6151H91.6071L123.374 20.4202Z" fill="white"/>
<path d="M123.021 42.3564H91.6075L90.866 41.6149L122.962 19.7993L123.379 19.6743L154.621 19.5994V21.2365L123.458 42.2314L123.021 42.3564ZM94.0485 40.8734H122.792L152.005 21.1615H123.596L94.0485 40.8734Z" fill="#534CF7"/>
<path d="M151.28 161.844L150.118 100.617L112.027 136.309V201.181L151.28 161.844Z" fill="white"/>
<path d="M112.027 201.447L110.777 200.922L111.302 136.309L111.535 135.767L149.626 100.08L150.876 100.605L152.038 161.84L151.822 162.378L112.027 201.447ZM112.769 136.63V199.402L150.534 161.561L149.406 102.3L112.769 136.63Z" fill="#544DF7"/>
<path d="M80.2809 136.679V200.672L112.027 200.706V136.679H80.2809Z" fill="white"/>
<path d="M112.027 201.447L80.3015 201.414L79.5601 200.672V136.679L80.3015 135.938H112.048L112.79 136.679V200.706L112.027 201.447ZM81.0264 199.931L111.286 199.96V137.421H81.0264V199.931Z" fill="#534CF7"/>
<path d="M106.961 179.215H85.4791V141.462H106.961V179.215ZM86.9662 177.74H105.462V142.945H86.9662V177.74Z" fill="#534CF7"/>
<path d="M106.2 151.655H86.2211V153.138H106.2V151.655Z" fill="#534CF7"/>
<path d="M106.2 160.89H86.2211V162.373H106.2V160.89Z" fill="#534CF7"/>
<path d="M106.2 169.276H86.2211V170.759H106.2V169.276Z" fill="#534CF7"/>
<path d="M123.708 100.951H149.502L112.027 136.68H80.2809L123.708 100.951Z" fill="white"/>
<path d="M112.027 137.421H80.3017L79.831 136.105L123.258 100.376L123.729 100.209H149.523L150.035 101.488L112.544 137.217L112.027 137.421ZM82.3512 135.938H111.732L147.648 101.692H123.975L82.3512 135.938Z" fill="#534CF7"/>
<path d="M83.7759 180.023C83.8027 178.728 83.5707 177.441 83.0936 176.236C82.6165 175.032 81.9039 173.935 80.9974 173.01C80.091 172.084 79.009 171.349 77.8148 170.847C76.6206 170.345 75.3382 170.087 74.0428 170.087C72.7474 170.087 71.4651 170.345 70.2709 170.847C69.0767 171.349 67.9946 172.084 67.0882 173.01C66.1817 173.935 65.4691 175.032 64.992 176.236C64.5149 177.441 64.2829 178.728 64.3097 180.023C64.3107 180.884 64.4284 181.74 64.6597 182.568V183.106C61.8524 183.106 59.16 184.221 57.175 186.206C55.1899 188.191 54.0747 190.883 54.0747 193.691C54.0747 196.498 55.1899 199.19 57.175 201.175C59.16 203.16 61.8524 204.276 64.6597 204.276H83.7759V180.023Z" fill="#6EEA94"/>
<path d="M84.5171 205.017H64.6594C61.7149 205.033 58.8799 203.903 56.7551 201.864C54.6304 199.826 53.383 197.04 53.2773 194.097C53.1717 191.155 54.2161 188.287 56.1892 186.101C58.1623 183.915 60.909 182.584 63.8471 182.389C63.6621 181.614 63.5684 180.82 63.568 180.023C63.5402 178.63 63.7906 177.245 64.3045 175.95C64.8184 174.655 65.5855 173.475 66.5609 172.48C67.5363 171.485 68.7004 170.695 69.9851 170.155C71.2697 169.616 72.6491 169.338 74.0425 169.338C75.4359 169.338 76.8153 169.616 78.1 170.155C79.3846 170.695 80.5487 171.485 81.5241 172.48C82.4995 173.475 83.2666 174.655 83.7805 175.95C84.2945 177.245 84.5448 178.63 84.5171 180.023V205.017ZM64.6594 183.847C62.0487 183.847 59.545 184.884 57.699 186.73C55.853 188.576 54.8159 191.08 54.8159 193.691C54.8159 196.301 55.853 198.805 57.699 200.651C59.545 202.497 62.0487 203.534 64.6594 203.534H83.0341V180.023C82.9835 177.672 82.0139 175.434 80.3332 173.789C78.6525 172.144 76.3943 171.223 74.0425 171.223C71.6908 171.223 69.4326 172.144 67.7518 173.789C66.0711 175.434 65.1015 177.672 65.0509 180.023C65.053 180.817 65.1623 181.608 65.3759 182.373L65.4008 182.568V183.847H64.6594Z" fill="#534CF7"/>
<path d="M384.866 108.52C380.756 106.885 377.28 103.972 374.953 100.21C372.627 96.4478 371.572 92.037 371.946 87.6295C372.32 83.2219 374.102 79.0516 377.028 75.735C379.955 72.4184 383.872 70.1315 388.198 69.2125L388.403 69.1875H468V71.1454H388.486C384.584 71.9984 381.06 74.0811 378.43 77.0871C375.801 80.0931 374.205 83.8635 373.879 87.8439C373.552 91.8243 374.512 95.8043 376.617 99.1985C378.721 102.593 381.859 105.222 385.57 106.699L384.866 108.52Z" fill="#534CF7"/>
<path d="M380.97 110.394L380.404 109.04L384.669 107.253L382.882 102.984L384.232 102.417L386.59 108.036L380.97 110.394Z" fill="#544DF7"/>
<path d="M327.092 180.269C323.834 179.053 320.856 177.193 318.335 174.798C315.814 172.404 313.802 169.525 312.421 166.335C311.101 163.301 310.407 160.032 310.382 156.723C310.356 153.415 310.998 150.135 312.271 147.081C315.545 139.166 322.685 133.334 331.341 131.547H331.537H414.492V133.501H331.641C327.767 134.281 324.142 135.995 321.081 138.494C318.02 140.994 315.616 144.203 314.078 147.843C312.908 150.657 312.316 153.677 312.34 156.724C312.363 159.771 313.002 162.782 314.216 165.577C315.497 168.526 317.359 171.188 319.692 173.402C322.024 175.615 324.779 177.336 327.792 178.461L327.092 180.269Z" fill="#534CF7"/>
<path d="M321.701 182.677L321.151 181.315L326.871 179.003L324.48 173.508L325.825 172.925L328.816 179.798L321.701 182.677Z" fill="#544DF7"/>
<path d="M106.437 237.888L108.899 237.151C109.398 238.817 110.24 239.725 112.098 239.725C113.764 239.725 114.951 238.988 114.951 237.563C114.951 236.551 114.343 235.814 112.077 235.381C108.682 234.731 106.849 233.439 106.849 230.844C106.849 228.249 109.007 226.375 112.098 226.375C114.822 226.375 116.613 227.887 117.263 230.411L114.822 231.103C114.431 229.59 113.697 228.749 112.098 228.749C110.565 228.749 109.461 229.44 109.461 230.832C109.461 232.019 110.565 232.452 112.552 232.885C115.989 233.619 117.551 234.939 117.551 237.551C117.551 240.317 115.155 242.087 112.085 242.087C109.182 242.1 107.174 240.609 106.437 237.888Z" fill="#544DF7"/>
<path d="M125.165 242.125C122.079 242.125 119.7 239.746 119.7 236.418C119.7 233.156 122.079 230.736 125.145 230.736C128.277 230.736 130.243 233.006 130.243 236.289V237.218H122.166C122.222 237.973 122.563 238.679 123.12 239.193C123.677 239.706 124.408 239.989 125.165 239.984C125.721 240.017 126.273 239.877 126.746 239.583C127.218 239.289 127.587 238.856 127.802 238.342L129.985 239.013C129.36 240.742 127.79 242.125 125.165 242.125ZM127.956 235.36C127.907 234.66 127.589 234.006 127.069 233.534C126.549 233.063 125.867 232.811 125.165 232.831C124.444 232.809 123.74 233.056 123.19 233.523C122.64 233.99 122.283 234.644 122.187 235.36H127.956Z" fill="#544DF7"/>
<path d="M138.021 230.736C140.462 230.736 142.582 231.923 142.582 234.731V241.812H140.462L140.116 240.821C139.699 241.421 138.8 242.116 137.025 242.116C134.942 242.116 133.276 240.842 133.276 238.784C133.276 237.205 134.109 235.739 137.596 235.26L139.974 234.939V234.764C139.974 233.514 139.37 232.798 137.921 232.798C136.471 232.798 135.892 233.469 135.717 234.572L133.405 234.031C134.001 231.861 135.405 230.736 138.021 230.736ZM139.987 236.743L137.783 237.068C136.379 237.263 135.775 237.738 135.775 238.642C135.775 239.475 136.488 240.029 137.742 240.029C138.995 240.029 139.987 239.338 139.987 238.038V236.743Z" fill="#544DF7"/>
<path d="M169.755 231.061L167.551 241.842H165.414L163.881 235.176L162.323 241.842H160.161L157.958 231.061H160.282L161.386 237.088L162.84 231.061H164.864L166.335 237.088L167.422 231.061H169.755Z" fill="#544DF7"/>
<path d="M176.907 230.736C179.348 230.736 181.464 231.923 181.464 234.731V241.812H179.348L179.002 240.821C178.586 241.421 177.682 242.116 175.911 242.116C173.828 242.116 172.162 240.842 172.162 238.784C172.162 237.205 172.995 235.739 176.482 235.26L178.861 234.939V234.764C178.861 233.514 178.252 232.798 176.807 232.798C175.361 232.798 174.774 233.469 174.603 234.572L172.291 234.031C172.887 231.861 174.291 230.736 176.907 230.736ZM178.873 236.743L176.665 237.068C175.261 237.263 174.657 237.738 174.657 238.642C174.657 239.475 175.37 240.029 176.624 240.029C177.878 240.029 178.873 239.338 178.873 238.038V236.743Z" fill="#544DF7"/>
<path d="M195.053 239.442C194.665 240.567 193.778 242.125 191.337 242.125C189.004 242.125 187.317 240.742 187.317 238.376V228.978H184.51V226.708H189.925V238.205C189.925 239.196 190.466 239.696 191.395 239.696C191.73 239.723 192.064 239.625 192.331 239.421C192.599 239.218 192.781 238.923 192.845 238.592L195.053 239.442Z" fill="#544DF7"/>
<path d="M208.012 239.442C207.625 240.567 206.737 242.125 204.296 242.125C201.963 242.125 200.276 240.742 200.276 238.376V228.978H197.469V226.708H202.884V238.205C202.884 239.196 203.426 239.696 204.354 239.696C204.689 239.723 205.022 239.625 205.288 239.421C205.555 239.217 205.737 238.922 205.8 238.592L208.012 239.442Z" fill="#544DF7"/>
<path d="M217.885 234.56C217.816 234.065 217.564 233.615 217.178 233.298C216.792 232.982 216.3 232.822 215.802 232.852C214.377 232.852 213.794 233.394 213.794 233.977C213.794 234.71 214.627 235.014 216.256 235.252C218.755 235.639 220.422 236.501 220.422 238.709C220.422 240.629 218.651 242.125 215.777 242.125C213.228 242.125 211.52 240.85 210.999 238.751L213.269 238.063C213.552 239.096 214.219 240.005 215.769 240.005C217.131 240.005 217.951 239.551 217.951 238.755C217.951 238.197 217.477 237.763 215.723 237.459C213.282 237.043 211.315 236.38 211.315 234.089C211.315 232.231 212.982 230.757 215.769 230.757C218.081 230.757 219.68 231.944 220.134 233.998L217.885 234.56Z" fill="#544DF7"/>
<path d="M216 410.99H532.863L649 272.875L332.013 272.999L216 410.99Z" fill="white"/>
<path d="M382.577 262.644L370.159 235.947L357.74 262.644H363.952L357.74 275.99H382.577L376.37 262.644H382.577Z" fill="#6EEA94"/>
<path d="M383.68 276.691H356.643L362.858 263.34H356.643L370.163 234.302L383.68 263.357H377.464L383.68 276.691ZM358.864 275.286H381.5L375.285 261.939H381.5L370.163 237.616L358.864 261.939H365.079L358.864 275.286Z" fill="#534CF7"/>
<path d="M372.895 297.856L371.482 256.677C371.463 256.34 371.315 256.023 371.07 255.791C370.825 255.558 370.5 255.429 370.162 255.429C369.824 255.429 369.499 255.558 369.254 255.791C369.008 256.023 368.861 256.34 368.842 256.677L367.429 297.873C367.413 297.987 367.404 298.102 367.404 298.217C367.432 298.93 367.735 299.604 368.249 300.099C368.763 300.593 369.448 300.87 370.162 300.87C370.875 300.87 371.561 300.593 372.075 300.099C372.589 299.604 372.892 298.93 372.919 298.217C372.92 298.096 372.912 297.976 372.895 297.856Z" fill="white"/>
<path d="M370.163 301.656C369.246 301.656 368.367 301.292 367.718 300.644C367.069 299.996 366.704 299.117 366.703 298.2C366.705 298.062 366.715 297.923 366.732 297.786L368.141 256.652C368.167 256.132 368.393 255.643 368.771 255.285C369.149 254.927 369.65 254.729 370.171 254.731C370.691 254.734 371.191 254.937 371.565 255.299C371.94 255.661 372.16 256.153 372.181 256.673L373.594 297.819C373.612 297.957 373.62 298.095 373.619 298.233C373.609 299.144 373.241 300.014 372.594 300.654C371.947 301.295 371.074 301.655 370.163 301.656ZM370.163 256.043C369.999 256.043 369.841 256.108 369.725 256.224C369.609 256.339 369.543 256.496 369.542 256.661L368.129 297.881C368.114 297.987 368.106 298.094 368.104 298.2C368.164 298.704 368.406 299.168 368.785 299.505C369.164 299.841 369.654 300.027 370.161 300.027C370.668 300.027 371.158 299.841 371.537 299.505C371.916 299.168 372.158 298.704 372.218 298.2C372.218 298.114 372.211 298.028 372.198 297.943V297.881L370.776 256.677C370.778 256.595 370.763 256.514 370.733 256.437C370.703 256.361 370.659 256.291 370.602 256.232C370.545 256.174 370.477 256.126 370.401 256.094C370.326 256.061 370.245 256.044 370.163 256.043Z" fill="#534CF7"/>
<path d="M413.622 248.941C413.623 246.555 412.966 244.214 411.724 242.177C410.481 240.139 408.7 238.484 406.578 237.393C406.797 236.494 406.81 235.557 406.614 234.653C406.418 233.748 406.019 232.9 405.448 232.173C404.876 231.445 404.147 230.857 403.315 230.452C402.483 230.048 401.57 229.837 400.644 229.837C399.719 229.837 398.806 230.048 397.974 230.452C397.142 230.857 396.412 231.445 395.841 232.173C395.269 232.9 394.871 233.748 394.675 234.653C394.479 235.557 394.491 236.494 394.711 237.393C392.926 238.309 391.377 239.627 390.187 241.243C388.997 242.859 388.198 244.728 387.853 246.705C387.507 248.681 387.624 250.711 388.195 252.635C388.766 254.559 389.775 256.324 391.143 257.792C389.419 259.642 388.273 261.956 387.845 264.449C387.418 266.942 387.727 269.506 388.736 271.825C389.746 274.144 391.41 276.118 393.525 277.505C395.641 278.892 398.115 279.63 400.644 279.63C403.174 279.63 405.648 278.892 407.763 277.505C409.879 276.118 411.543 274.144 412.552 271.825C413.561 269.506 413.871 266.942 413.444 264.449C413.016 261.956 411.87 259.642 410.146 257.792C412.386 255.39 413.629 252.226 413.622 248.941Z" fill="#6EEA94"/>
<path d="M400.635 280.325C398.022 280.33 395.462 279.586 393.258 278.181C391.055 276.776 389.3 274.769 388.202 272.397C387.103 270.026 386.708 267.39 387.061 264.801C387.415 262.211 388.503 259.778 390.197 257.788C388.893 256.25 387.945 254.443 387.422 252.496C386.898 250.55 386.811 248.511 387.168 246.527C387.524 244.543 388.315 242.662 389.483 241.019C390.652 239.376 392.169 238.012 393.926 237.024C393.866 236.672 393.835 236.316 393.835 235.959C393.835 234.152 394.553 232.42 395.83 231.142C397.108 229.865 398.841 229.147 400.647 229.147C402.454 229.147 404.187 229.865 405.464 231.142C406.742 232.42 407.459 234.152 407.459 235.959C407.459 236.316 407.43 236.672 407.372 237.024C409.13 238.012 410.647 239.376 411.815 241.019C412.984 242.662 413.775 244.543 414.131 246.527C414.487 248.511 414.401 250.55 413.877 252.496C413.353 254.443 412.405 256.25 411.102 257.788C412.796 259.778 413.884 262.212 414.237 264.802C414.591 267.391 414.195 270.028 413.096 272.399C411.997 274.771 410.242 276.778 408.038 278.182C405.834 279.587 403.273 280.33 400.66 280.325H400.635ZM400.635 230.548C399.204 230.555 397.835 231.129 396.825 232.142C395.816 233.156 395.249 234.528 395.248 235.959C395.251 236.386 395.304 236.812 395.406 237.227L395.534 237.766L395.045 238.018C393.356 238.884 391.891 240.13 390.764 241.658C389.638 243.186 388.882 244.954 388.554 246.824C388.227 248.694 388.338 250.614 388.878 252.434C389.418 254.253 390.373 255.923 391.668 257.311L392.111 257.788L391.668 258.268C390.036 260.019 388.952 262.208 388.547 264.567C388.142 266.925 388.435 269.351 389.389 271.545C390.344 273.74 391.919 275.608 393.92 276.92C395.921 278.232 398.262 278.931 400.656 278.931C403.049 278.931 405.39 278.232 407.391 276.92C409.392 275.608 410.967 273.74 411.922 271.545C412.876 269.351 413.169 266.925 412.764 264.567C412.36 262.208 411.275 260.019 409.643 258.268L409.2 257.788L409.643 257.311C410.938 255.923 411.893 254.254 412.434 252.434C412.974 250.615 413.085 248.695 412.759 246.825C412.432 244.956 411.676 243.187 410.55 241.659C409.424 240.131 407.959 238.885 406.27 238.018L405.781 237.766L405.91 237.227C406.106 236.431 406.119 235.602 405.946 234.8C405.774 233.999 405.421 233.248 404.914 232.604C404.408 231.96 403.761 231.44 403.023 231.083C402.285 230.727 401.475 230.544 400.656 230.548H400.635Z" fill="#534CF7"/>
<path d="M403.51 293.912L402.023 250.611C402.003 250.256 401.849 249.923 401.591 249.679C401.333 249.435 400.992 249.299 400.637 249.299C400.282 249.299 399.94 249.435 399.682 249.679C399.425 249.923 399.27 250.256 399.251 250.611L397.763 293.912C397.746 294.031 397.738 294.152 397.738 294.272C397.738 295.041 398.044 295.779 398.588 296.323C399.132 296.867 399.87 297.173 400.639 297.173C401.408 297.173 402.146 296.867 402.69 296.323C403.234 295.779 403.539 295.041 403.539 294.272C403.536 294.152 403.526 294.031 403.51 293.912Z" fill="white"/>
<path d="M400.636 297.869C399.682 297.869 398.767 297.49 398.093 296.815C397.418 296.141 397.039 295.226 397.039 294.272C397.04 294.123 397.05 293.973 397.068 293.825L398.551 250.59C398.554 250.037 398.777 249.507 399.17 249.118C399.563 248.729 400.095 248.511 400.648 248.514C401.201 248.517 401.731 248.739 402.12 249.133C402.51 249.526 402.727 250.058 402.724 250.611L404.208 293.858C404.226 293.995 404.235 294.134 404.237 294.272C404.235 295.226 403.856 296.141 403.18 296.816C402.505 297.49 401.59 297.869 400.636 297.869ZM400.636 249.927C400.546 249.927 400.457 249.945 400.374 249.979C400.291 250.014 400.216 250.064 400.152 250.127C400.089 250.191 400.038 250.266 400.004 250.349C399.97 250.432 399.952 250.521 399.952 250.611L398.464 293.937C398.45 294.048 398.442 294.16 398.44 294.272C398.44 294.855 398.671 295.413 399.083 295.825C399.495 296.237 400.053 296.468 400.636 296.468C401.218 296.468 401.777 296.237 402.189 295.825C402.6 295.413 402.832 294.855 402.832 294.272C402.832 294.177 402.832 294.09 402.832 293.999V293.937L401.344 250.636C401.347 250.542 401.33 250.449 401.295 250.362C401.26 250.275 401.208 250.196 401.142 250.13C401.076 250.063 400.997 250.011 400.91 249.976C400.823 249.942 400.729 249.925 400.636 249.927Z" fill="#534CF7"/>
<path d="M278.57 365.903L239.748 410.99H326.383L367.45 365.982L278.57 365.903Z" fill="#6EEA94"/>
<path d="M430.287 272.875L399.086 309.74H499.163L529.995 272.953L430.287 272.875Z" fill="#6EEA94"/>
<path opacity="0.5" d="M509.075 318.753L431.572 410.99H532.83L610.316 318.827L509.075 318.753Z" fill="#6793D0"/>
<path d="M354.75 380.111L326.383 410.99H414.555L442.553 380.186L354.75 380.111Z" fill="#6EEA94" fill-opacity="0.5"/>
<path d="M350.668 331.428V303.434H393.571V331.511L350.668 331.428Z" fill="white"/>
<path d="M393.57 332.207L350.667 332.124L349.967 331.424V303.434L350.671 302.729H393.57L394.27 303.43V331.503L393.57 332.207ZM351.371 330.724L392.87 330.806V304.134H351.371V330.724Z" fill="#544DF7"/>
<path d="M363.289 284.257H405.177L393.57 303.993H350.303L363.289 284.257Z" fill="white"/>
<path d="M393.571 304.694H350.303L349.715 303.608L362.701 283.868L363.289 283.553H405.177L405.782 284.609L394.18 304.345L393.571 304.694ZM351.604 303.289H393.169L403.942 284.953H363.666L351.604 303.289Z" fill="#534CF7"/>
<path d="M414.263 323.157V299.145L404.961 283.901L393.57 303.434L393.061 331.556L414.263 323.157Z" fill="white"/>
<path d="M393.323 332.207L392.361 331.54L392.871 303.421L392.966 303.082L404.357 283.544H405.563L414.861 298.789L414.965 299.153V323.186L414.521 323.837L393.323 332.207ZM394.267 303.616L393.783 330.504L413.564 322.668V299.356L404.975 285.268L394.267 303.616Z" fill="#534CF7"/>
<path d="M406.693 310.184L400.635 312.268V303.687L406.693 301.606V310.184Z" fill="white"/>
<path d="M399.936 313.246V303.185L407.394 300.62V310.685L399.936 313.246ZM401.336 304.184V311.282L405.994 309.682V302.584L401.336 304.184Z" fill="#534CF7"/>
<path d="M389.753 308.733H376.941V317.29H389.753V308.733Z" fill="#534CF7"/>
<path d="M260.113 414.052H258.244V428.057H260.113V414.052Z" fill="#534CF7"/>
<path d="M256.006 424.336L259.176 427.506L262.346 424.336V427.025L259.176 430.195L256.006 427.025V424.336Z" fill="#534CF7"/>
<path d="M297.621 414.052H295.752V428.057H297.621V414.052Z" fill="#534CF7"/>
<path d="M293.516 424.336L296.685 427.506L299.855 424.336V427.025L296.685 430.195L293.516 427.025V424.336Z" fill="#534CF7"/>
<path d="M453.101 414.052H451.232V428.057H453.101V414.052Z" fill="#534CF7"/>
<path d="M448.996 424.336L452.166 427.506L455.336 424.336V427.025L452.166 430.195L448.996 427.025V424.336Z" fill="#534CF7"/>
<path d="M490.611 414.052H488.742V428.057H490.611V414.052Z" fill="#534CF7"/>
<path d="M486.508 424.336L489.674 427.506L492.843 424.336V427.025L489.674 430.195L486.508 427.025V424.336Z" fill="#534CF7"/>
<path d="M587.496 352.71H585.627V366.715H587.496V352.71Z" fill="#534CF7"/>
<path d="M583.395 362.99L586.564 366.164L589.734 362.99V365.683L586.564 368.853L583.395 365.683V362.99Z" fill="#534CF7"/>
<path d="M395.381 409.274L394.689 408.644L396.579 406.573L397.271 407.202L395.381 409.274ZM399.16 405.131L398.473 404.501L400.362 402.429L401.054 403.059L399.16 405.131ZM402.944 400.987L402.252 400.357L404.141 398.285L404.833 398.915L402.944 400.987ZM406.723 396.843L406.031 396.209L407.924 394.138L408.612 394.767L406.723 396.843ZM410.506 392.7L409.814 392.07L411.703 389.998L412.395 390.628L410.506 392.7ZM414.285 388.556L413.593 387.926L415.486 385.855L416.174 386.484L414.285 388.556ZM418.068 384.413L417.376 383.783L419.265 381.711L419.957 382.341L418.068 384.413Z" fill="#534CF7"/>
<path d="M371.809 409.274L371.121 408.644L373.011 406.573L373.703 407.202L371.809 409.274ZM375.592 405.131L374.9 404.501L376.79 402.429L377.482 403.059L375.592 405.131ZM379.371 400.987L378.683 400.357L380.573 398.285L381.265 398.915L379.371 400.987ZM383.154 396.843L382.462 396.209L384.352 394.138L385.044 394.767L383.154 396.843ZM386.933 392.7L386.241 392.07L388.135 389.998L388.823 390.628L386.933 392.7ZM390.716 388.556L390.024 387.926L391.914 385.855L392.606 386.484L390.716 388.556ZM394.495 384.413L393.803 383.783L395.693 381.711L396.385 382.341L394.495 384.413Z" fill="#534CF7"/>
<path d="M347.61 409.274L346.918 408.644L348.807 406.573L349.499 407.202L347.61 409.274ZM351.389 405.131L350.697 404.501L352.586 402.429L353.278 403.059L351.389 405.131ZM355.168 400.987L354.48 400.357L356.37 398.285L357.062 398.915L355.168 400.987ZM358.951 396.843L358.259 396.209L360.149 394.138L360.841 394.767L358.951 396.843ZM362.73 392.7L362.038 392.07L363.932 389.998L364.62 390.628L362.73 392.7ZM366.513 388.556L365.821 387.926L367.711 385.855L368.403 386.484L366.513 388.556ZM370.292 384.413L369.6 383.783L371.494 381.711L372.182 382.341L370.292 384.413Z" fill="#534CF7"/>
<path d="M543.624 326.804L508.383 368.741L568.225 368.886L603.562 326.866L543.624 326.804Z" fill="#6EEA94"/>
<path d="M549.922 368.472L549.205 367.871L551.008 365.725L551.724 366.325L549.922 368.472ZM553.527 364.175L552.81 363.574L554.613 361.428L555.329 362.029L553.527 364.175ZM557.132 359.882L556.415 359.281L558.217 357.131L558.934 357.732L557.132 359.882ZM560.737 355.585L560.02 354.984L561.822 352.834L562.539 353.435L560.737 355.585ZM564.342 351.288L563.625 350.687L565.427 348.537L566.144 349.138L564.342 351.288ZM567.947 346.991L567.23 346.391L569.032 344.24L569.749 344.841L567.947 346.991ZM571.552 342.694L570.835 342.094L572.637 339.943L573.354 340.544L571.552 342.694ZM575.157 338.397L574.44 337.797L576.242 335.646L576.959 336.247L575.157 338.397ZM578.761 334.101L578.045 333.5L579.847 331.353L580.564 331.954L578.761 334.101ZM582.366 329.804L581.65 329.203L583.452 327.056L584.169 327.657L582.366 329.804Z" fill="#534CF7"/>
<path d="M528.877 368.472L528.16 367.871L529.963 365.725L530.68 366.325L528.877 368.472ZM532.482 364.175L531.765 363.574L533.568 361.428L534.284 362.029L532.482 364.175ZM536.087 359.882L535.37 359.281L537.173 357.131L537.889 357.732L536.087 359.882ZM539.692 355.585L538.975 354.984L540.778 352.834L541.494 353.435L539.692 355.585ZM543.297 351.288L542.58 350.687L544.382 348.537L545.099 349.138L543.297 351.288ZM546.902 346.991L546.185 346.391L547.987 344.24L548.704 344.841L546.902 346.991ZM550.507 342.694L549.79 342.094L551.592 339.943L552.309 340.544L550.507 342.694ZM554.112 338.397L553.395 337.797L555.197 335.646L555.914 336.247L554.112 338.397ZM557.717 334.101L557 333.5L558.802 331.353L559.519 331.954L557.717 334.101ZM561.322 329.804L560.605 329.203L562.407 327.056L563.124 327.657L561.322 329.804Z" fill="#534CF7"/>
<path d="M315.082 447.727H320.034C322.582 447.727 324.844 449.053 324.844 452.252C324.844 455.372 322.561 456.81 320.179 456.81H317.568V461.985H315.082V447.727ZM319.872 454.576C321.583 454.576 322.358 453.578 322.358 452.252C322.358 450.926 321.53 449.969 319.872 449.969H317.589V454.576H319.872Z" fill="#544DF7"/>
<path d="M332.1 462.283C329.199 462.283 326.945 460.042 326.945 456.897C326.945 453.752 329.187 451.535 332.083 451.535C334.98 451.535 336.894 453.677 336.894 456.777V457.643H329.27C329.321 458.356 329.643 459.023 330.168 459.508C330.694 459.993 331.385 460.259 332.1 460.253C332.624 460.284 333.145 460.152 333.59 459.874C334.035 459.597 334.384 459.188 334.586 458.703L336.658 459.337C336.074 460.978 334.59 462.283 332.1 462.283ZM334.731 455.902C334.685 455.242 334.386 454.624 333.896 454.18C333.405 453.735 332.762 453.497 332.1 453.516C331.418 453.491 330.752 453.723 330.233 454.164C329.713 454.606 329.377 455.226 329.291 455.902H334.731Z" fill="#544DF7"/>
<path d="M349.595 454.477L347.474 455.19C347.452 454.784 347.275 454.403 346.978 454.125C346.681 453.848 346.289 453.696 345.883 453.702C344.764 453.702 343.989 454.477 343.989 456.126V459.855H346.475V462.014H339.236V459.855H341.644V453.984H339.236V451.842H342.966L343.127 452.882C343.509 452.445 343.984 452.1 344.517 451.871C345.049 451.641 345.626 451.534 346.206 451.556C347.026 451.558 347.819 451.854 348.441 452.39C349.062 452.926 349.472 453.666 349.595 454.477Z" fill="#544DF7"/>
<path d="M352.835 451.842L353.117 452.67C353.316 452.322 353.604 452.034 353.953 451.836C354.302 451.639 354.697 451.539 355.098 451.547C355.502 451.514 355.905 451.619 356.241 451.845C356.578 452.071 356.828 452.404 356.95 452.791C357.166 452.399 357.487 452.076 357.876 451.857C358.265 451.637 358.708 451.53 359.154 451.547C360.725 451.547 361.641 452.447 361.641 454.792V462.006H359.44V455.036C359.44 454.096 359.092 453.768 358.562 453.768C357.932 453.768 357.501 454.183 357.501 455.426V462.01H355.301V455.04C355.301 454.079 354.953 453.773 354.344 453.773C353.735 453.773 353.32 454.187 353.32 455.43V462.014H351.141V451.842H352.835Z" fill="#544DF7"/>
<path d="M368.809 462.283C365.909 462.283 363.65 460.042 363.65 456.897C363.65 453.752 365.892 451.535 368.788 451.535C371.685 451.535 373.599 453.677 373.599 456.777V457.643H365.975C366.028 458.356 366.35 459.023 366.876 459.508C367.402 459.993 368.094 460.259 368.809 460.253C369.333 460.284 369.854 460.152 370.299 459.874C370.745 459.597 371.093 459.188 371.295 458.703L373.367 459.337C372.75 460.978 371.295 462.283 368.809 462.283ZM371.436 455.902C371.396 455.239 371.099 454.618 370.609 454.169C370.119 453.721 369.473 453.481 368.809 453.499C368.127 453.474 367.46 453.705 366.939 454.146C366.419 454.588 366.082 455.208 365.996 455.886L371.436 455.902Z" fill="#544DF7"/>
<path d="M380.925 451.539C383.229 451.539 385.226 452.662 385.226 455.314V461.998H383.229L382.901 461.061C382.487 461.633 381.658 462.304 380.001 462.304C378.045 462.304 376.475 461.103 376.475 459.167C376.475 457.676 377.249 456.292 380.552 455.853L382.798 455.55V455.384C382.798 454.224 382.226 453.528 380.859 453.528C379.491 453.528 378.944 454.162 378.787 455.185L376.607 454.676C377.133 452.6 378.455 451.539 380.925 451.539ZM382.781 457.208L380.709 457.514C379.383 457.696 378.812 458.144 378.812 459.002C378.812 459.777 379.483 460.307 380.668 460.307C381.853 460.307 382.789 459.656 382.789 458.43L382.781 457.208Z" fill="#544DF7"/>
<path d="M390.356 447.727V452.969C390.742 452.503 391.229 452.132 391.781 451.884C392.332 451.636 392.934 451.518 393.538 451.539C396.439 451.539 398.452 453.926 398.452 456.901C398.452 459.876 396.331 462.288 393.48 462.288C392.858 462.303 392.241 462.173 391.679 461.907C391.116 461.642 390.623 461.249 390.24 460.759L389.912 462.002H387.895V447.731L390.356 447.727ZM393.173 460.083C394.781 460.083 396.004 458.757 396.004 456.901C396.004 455.045 394.781 453.744 393.173 453.744C391.566 453.744 390.356 455.049 390.356 456.901C390.356 458.753 391.504 460.083 393.157 460.083H393.173Z" fill="#544DF7"/>
<path d="M409.852 459.839V461.998H400.777V459.839H404.092V453.967H401.647V451.842H406.541V459.855L409.852 459.839ZM403.57 448.991C403.568 448.681 403.658 448.377 403.828 448.118C403.999 447.859 404.243 447.657 404.529 447.538C404.815 447.418 405.13 447.386 405.434 447.446C405.738 447.506 406.018 447.655 406.237 447.874C406.456 448.093 406.605 448.372 406.665 448.677C406.725 448.981 406.693 449.296 406.573 449.582C406.453 449.868 406.251 450.112 405.992 450.282C405.734 450.453 405.43 450.543 405.12 450.54C404.71 450.537 404.318 450.373 404.028 450.083C403.738 449.793 403.573 449.401 403.57 448.991Z" fill="#544DF7"/>
<path d="M422.509 459.756C422.141 460.817 421.308 462.284 419.004 462.284C416.799 462.284 415.208 460.978 415.208 458.757V449.869H412.561V447.727H417.657V458.575C417.657 459.512 418.167 459.98 419.041 459.98C419.357 460.006 419.672 459.914 419.924 459.722C420.177 459.53 420.349 459.251 420.409 458.94L422.509 459.756Z" fill="#544DF7"/>
<path d="M434.311 459.839V461.998H425.24V459.839H428.555V453.967H426.106V451.842H431V459.855L434.311 459.839ZM428.033 448.991C428.036 448.581 428.201 448.189 428.491 447.899C428.78 447.609 429.173 447.444 429.583 447.441C429.994 447.441 430.388 447.604 430.679 447.895C430.969 448.186 431.133 448.58 431.133 448.991C431.133 449.402 430.969 449.796 430.679 450.087C430.388 450.377 429.994 450.541 429.583 450.541C429.379 450.541 429.177 450.501 428.989 450.424C428.801 450.346 428.63 450.232 428.486 450.088C428.342 449.944 428.228 449.773 428.15 449.585C428.072 449.396 428.033 449.195 428.033 448.991Z" fill="#544DF7"/>
<path d="M446.709 459.756C446.344 460.817 445.507 462.283 443.203 462.283C441.003 462.283 439.412 460.978 439.412 458.757V453.967H436.926V451.841H439.412V449.252H441.857V451.841H446.241V453.984H441.857V458.591C441.83 458.783 441.847 458.977 441.909 459.16C441.97 459.344 442.073 459.51 442.21 459.646C442.346 459.782 442.513 459.885 442.696 459.946C442.88 460.007 443.074 460.024 443.265 459.996C443.578 460.018 443.888 459.924 444.137 459.732C444.385 459.54 444.554 459.264 444.612 458.956L446.709 459.756Z" fill="#544DF7"/>
<path d="M458.874 451.842V461.629C458.874 464.484 457.101 466.377 454.022 466.377C451.474 466.377 450.09 464.952 449.58 463.137L451.863 462.669C452.087 463.667 452.758 464.281 454.022 464.281C455.53 464.281 456.429 463.361 456.429 461.65V460.506C456.07 460.973 455.601 461.346 455.065 461.592C454.528 461.837 453.94 461.948 453.351 461.915C451.13 461.915 449.622 460.609 449.622 457.634V451.833H452.095V457.22C452.095 459.056 452.924 459.627 454.134 459.627C455.46 459.627 456.438 458.749 456.438 457.038V451.842H458.874Z" fill="#544DF7"/>
<path d="M560.87 239.63C560.871 237.244 560.214 234.903 558.972 232.866C557.729 230.828 555.948 229.173 553.826 228.082C553.939 227.611 553.997 227.128 554 226.644C554.006 225.777 553.827 224.918 553.476 224.125C553.125 223.332 552.608 222.623 551.962 222.044C551.315 221.466 550.553 221.032 549.725 220.772C548.898 220.511 548.025 220.429 547.164 220.532C546.302 220.635 545.473 220.92 544.73 221.368C543.987 221.816 543.349 222.418 542.856 223.132C542.364 223.846 542.029 224.657 541.874 225.51C541.72 226.364 541.748 227.24 541.958 228.082C540.173 228.998 538.625 230.315 537.435 231.931C536.245 233.546 535.446 235.415 535.1 237.392C534.755 239.368 534.872 241.398 535.443 243.321C536.014 245.244 537.023 247.009 538.391 248.477C536.668 250.327 535.523 252.64 535.096 255.132C534.67 257.624 534.98 260.186 535.989 262.504C536.998 264.822 538.662 266.795 540.776 268.181C542.891 269.567 545.364 270.305 547.892 270.305C550.42 270.305 552.893 269.567 555.008 268.181C557.122 266.795 558.786 264.822 559.795 262.504C560.804 260.186 561.115 257.624 560.688 255.132C560.261 252.64 559.116 250.327 557.393 248.477C559.633 246.076 560.876 242.913 560.87 239.63Z" fill="#6EEA94"/>
<path d="M547.887 271.014C545.273 271.02 542.713 270.276 540.509 268.871C538.305 267.467 536.549 265.46 535.451 263.088C534.352 260.717 533.956 258.08 534.309 255.491C534.663 252.901 535.751 250.467 537.445 248.477C536.14 246.939 535.192 245.132 534.668 243.185C534.144 241.238 534.057 239.198 534.413 237.214C534.77 235.229 535.561 233.347 536.729 231.704C537.898 230.061 539.416 228.697 541.174 227.709C541.117 227.357 541.088 227.001 541.087 226.644C541.131 224.867 541.868 223.178 543.14 221.936C544.413 220.695 546.12 220 547.897 220C549.675 220 551.382 220.695 552.654 221.936C553.927 223.178 554.664 224.867 554.707 226.644C554.707 227.001 554.678 227.357 554.62 227.709C556.378 228.697 557.896 230.061 559.065 231.704C560.234 233.347 561.025 235.229 561.382 237.214C561.738 239.198 561.651 241.238 561.127 243.185C560.603 245.132 559.654 246.939 558.35 248.477C560.044 250.467 561.132 252.901 561.485 255.49C561.839 258.079 561.443 260.715 560.345 263.087C559.247 265.458 557.492 267.465 555.289 268.87C553.085 270.275 550.525 271.019 547.912 271.014H547.887ZM547.887 221.237C546.456 221.238 545.084 221.805 544.07 222.814C543.056 223.823 542.483 225.193 542.475 226.623C542.478 227.052 542.531 227.479 542.633 227.895L542.761 228.434L542.272 228.683C540.584 229.55 539.119 230.796 537.993 232.325C536.868 233.853 536.112 235.622 535.784 237.491C535.457 239.361 535.568 241.281 536.108 243.101C536.647 244.921 537.602 246.591 538.895 247.98L539.343 248.456L538.895 248.933C537.264 250.684 536.18 252.873 535.776 255.231C535.371 257.589 535.665 260.015 536.619 262.209C537.574 264.403 539.149 266.271 541.15 267.582C543.151 268.894 545.492 269.593 547.885 269.593C550.278 269.593 552.619 268.894 554.62 267.582C556.621 266.271 558.196 264.403 559.15 262.209C560.105 260.015 560.398 257.589 559.994 255.231C559.59 252.873 558.506 250.684 556.874 248.933L556.427 248.456L556.874 247.98C558.168 246.591 559.122 244.921 559.662 243.101C560.202 241.281 560.313 239.361 559.985 237.491C559.658 235.622 558.902 233.853 557.776 232.325C556.651 230.796 555.186 229.55 553.497 228.683L553.009 228.434L553.137 227.895C553.334 227.1 553.346 226.271 553.174 225.47C553.002 224.669 552.649 223.918 552.143 223.274C551.637 222.63 550.99 222.11 550.253 221.753C549.515 221.397 548.706 221.213 547.887 221.216V221.237Z" fill="#534CF7"/>
<path d="M550.758 284.601L549.271 241.3C549.251 240.946 549.097 240.612 548.839 240.368C548.581 240.124 548.24 239.988 547.885 239.988C547.53 239.988 547.188 240.124 546.93 240.368C546.673 240.612 546.518 240.946 546.499 241.3L545.011 284.601C544.997 284.719 544.988 284.838 544.986 284.957C544.986 285.727 545.292 286.464 545.836 287.008C546.38 287.552 547.118 287.858 547.887 287.858C548.656 287.858 549.394 287.552 549.938 287.008C550.482 286.464 550.787 285.727 550.787 284.957C550.786 284.838 550.776 284.719 550.758 284.601Z" fill="white"/>
<path d="M547.888 288.558C546.933 288.557 546.018 288.177 545.343 287.502C544.668 286.827 544.288 285.912 544.287 284.957C544.288 284.809 544.298 284.661 544.316 284.514L545.8 241.275C545.803 240.722 546.026 240.193 546.419 239.804C546.813 239.415 547.345 239.198 547.898 239.201C548.452 239.205 548.981 239.428 549.37 239.821C549.759 240.215 549.975 240.747 549.972 241.3L551.46 284.547C551.476 284.685 551.485 284.823 551.485 284.962C551.483 285.915 551.104 286.829 550.43 287.504C549.756 288.178 548.842 288.557 547.888 288.558ZM547.888 240.616C547.798 240.616 547.708 240.633 547.625 240.667C547.542 240.701 547.466 240.752 547.402 240.815C547.338 240.879 547.287 240.954 547.253 241.038C547.218 241.121 547.2 241.21 547.2 241.3L545.713 284.626C545.698 284.736 545.69 284.847 545.688 284.957C545.675 285.254 545.722 285.55 545.827 285.828C545.931 286.106 546.091 286.36 546.297 286.575C546.502 286.789 546.749 286.96 547.022 287.076C547.295 287.193 547.589 287.253 547.886 287.253C548.183 287.253 548.477 287.193 548.75 287.076C549.023 286.96 549.27 286.789 549.475 286.575C549.68 286.36 549.84 286.106 549.945 285.828C550.05 285.55 550.097 285.254 550.084 284.957C550.09 284.868 550.09 284.778 550.084 284.688V284.626L548.572 241.346C548.577 241.253 548.563 241.159 548.531 241.071C548.499 240.984 548.449 240.903 548.385 240.835C548.322 240.767 548.245 240.713 548.159 240.675C548.074 240.637 547.981 240.617 547.888 240.616Z" fill="#534CF7"/>
<path d="M500.074 309.57V280.089H545.256V309.657L500.074 309.57Z" fill="white"/>
<path d="M545.256 310.391L500.091 310.304L499.354 309.566V280.084L500.091 279.347H545.256L545.994 280.089V309.653L545.256 310.391ZM500.812 308.829L544.519 308.916V280.826H500.812V308.829Z" fill="#544DF7"/>
<path d="M513.364 259.888H557.485L545.257 280.677H499.686L513.364 259.888Z" fill="#6793D0"/>
<path d="M545.256 281.415H499.676L499.059 280.271L512.733 259.482L513.35 259.151H557.471L558.105 260.261L545.882 281.05L545.256 281.415ZM501.056 279.935H544.833L556.191 260.626H513.76L501.056 279.935Z" fill="#534CF7"/>
<path d="M567.053 290.017V264.082L557.257 259.515L545.257 280.088L544.723 309.703L567.053 290.017Z" fill="white"/>
<path d="M545.256 310.391L543.984 309.691L544.519 280.072L544.618 279.716L556.635 259.143H557.903L567.702 263.651L567.81 264.036V289.312L567.342 289.996L545.256 310.391ZM545.99 280.296L545.48 308.613L566.314 288.827L566.144 264.973L557.484 261.028L545.99 280.296Z" fill="#534CF7"/>
<path d="M559.074 287.199L552.697 289.391V280.354L559.074 278.162V287.199Z" fill="white"/>
<path d="M552.118 291.388L551.961 279.827L559.834 274.635V285.235L552.118 291.388ZM553.436 280.88V288.338L558.338 284.908V277.449L553.436 280.88Z" fill="#534CF7"/>
<path d="M513.098 295.362C513.098 293.054 514.014 290.841 515.646 289.209C517.278 287.577 519.491 286.66 521.799 286.66C524.107 286.66 526.32 287.577 527.952 289.209C529.584 290.841 530.501 293.054 530.501 295.362V309.566" fill="white"/>
<path d="M531.238 309.566H529.763V295.362C529.715 293.281 528.855 291.301 527.367 289.846C525.878 288.39 523.879 287.576 521.797 287.576C519.715 287.576 517.716 288.39 516.227 289.846C514.738 291.301 513.878 293.281 513.831 295.362H512.356C512.329 294.106 512.554 292.856 513.017 291.688C513.479 290.519 514.17 289.455 515.05 288.557C515.929 287.659 516.979 286.946 518.137 286.459C519.296 285.972 520.54 285.721 521.797 285.721C523.054 285.721 524.298 285.972 525.456 286.459C526.615 286.946 527.664 287.659 528.544 288.557C529.423 289.455 530.114 290.519 530.577 291.688C531.04 292.856 531.264 294.106 531.238 295.362V309.566Z" fill="#534CF7"/>
<path d="M513.835 295.362H512.359V309.173H513.835V295.362Z" fill="#544DF7"/>
<path d="M597.765 259.391L585.346 232.694L572.928 259.391H579.139L572.928 272.738H597.765L591.557 259.391H597.765Z" fill="#6EEA94"/>
<path d="M598.866 273.438H571.846L578.061 260.091H571.846L585.362 231.032L598.883 260.091H592.667L598.866 273.438ZM574.005 272.037H596.645L590.43 258.687H596.645L585.325 234.355L574.005 258.687H580.22L574.005 272.037Z" fill="#534CF7"/>
<path d="M588.08 294.608L586.663 253.412C586.663 253.062 586.524 252.727 586.277 252.48C586.03 252.233 585.695 252.094 585.345 252.094C584.996 252.094 584.661 252.233 584.414 252.48C584.166 252.727 584.028 253.062 584.028 253.412L582.619 294.608C582.602 294.72 582.594 294.834 582.594 294.948C582.579 295.319 582.64 295.689 582.772 296.036C582.904 296.383 583.105 296.7 583.363 296.968C583.62 297.235 583.929 297.448 584.271 297.594C584.612 297.739 584.98 297.814 585.351 297.814C585.723 297.814 586.09 297.739 586.432 297.594C586.774 297.448 587.083 297.235 587.34 296.968C587.598 296.7 587.799 296.383 587.931 296.036C588.063 295.689 588.123 295.319 588.109 294.948C588.106 294.834 588.096 294.72 588.08 294.608Z" fill="white"/>
<path d="M585.346 298.407C584.43 298.405 583.551 298.04 582.904 297.391C582.256 296.743 581.892 295.864 581.891 294.948C581.89 294.809 581.9 294.67 581.92 294.533L583.328 253.399C583.355 252.88 583.581 252.39 583.96 252.032C584.338 251.675 584.84 251.477 585.36 251.481C585.881 251.484 586.38 251.688 586.754 252.05C587.128 252.412 587.348 252.904 587.368 253.424L588.781 294.566C588.781 294.695 588.806 294.827 588.806 294.981C588.797 295.892 588.428 296.763 587.78 297.405C587.132 298.046 586.258 298.406 585.346 298.407ZM585.346 252.795C585.183 252.795 585.026 252.86 584.91 252.975C584.794 253.091 584.729 253.248 584.729 253.412L583.316 294.633C583.302 294.737 583.293 294.842 583.291 294.948C583.254 295.239 583.279 295.536 583.366 295.817C583.452 296.098 583.597 296.358 583.792 296.578C583.986 296.799 584.225 296.976 584.493 297.097C584.761 297.218 585.052 297.281 585.346 297.281C585.641 297.281 585.931 297.218 586.199 297.097C586.467 296.976 586.707 296.799 586.901 296.578C587.096 296.358 587.241 296.098 587.327 295.817C587.413 295.536 587.439 295.239 587.402 294.948C587.402 294.861 587.402 294.778 587.402 294.691V294.633L585.985 253.433C585.986 253.348 585.971 253.265 585.939 253.186C585.908 253.108 585.861 253.037 585.801 252.978C585.742 252.918 585.671 252.871 585.593 252.84C585.514 252.808 585.431 252.793 585.346 252.795Z" fill="#534CF7"/>
<path d="M463.176 322.49V288.396L405.928 341.078V379.946L463.176 322.49Z" fill="white"/>
<path d="M405.927 380.609C405.84 380.608 405.754 380.591 405.674 380.559C405.552 380.509 405.447 380.425 405.373 380.315C405.3 380.206 405.26 380.077 405.26 379.946V341.078C405.26 340.986 405.279 340.895 405.316 340.811C405.353 340.727 405.407 340.652 405.475 340.589L462.724 287.907C462.818 287.821 462.937 287.763 463.063 287.742C463.19 287.722 463.321 287.738 463.438 287.79C463.556 287.842 463.656 287.927 463.726 288.034C463.797 288.142 463.834 288.268 463.834 288.396V322.49C463.833 322.665 463.765 322.833 463.643 322.958L406.395 380.414C406.27 380.536 406.102 380.606 405.927 380.609ZM406.59 341.368V378.342L462.529 322.217V289.896L406.59 341.368Z" fill="#534CF7"/>
<path d="M405.878 341.853L463.176 288.554L449.44 271.49L394.027 325.067L405.878 341.853Z" fill="#6793D0"/>
<path d="M405.878 342.516H405.811C405.717 342.506 405.625 342.477 405.543 342.429C405.461 342.381 405.39 342.316 405.335 342.239L393.488 325.461C393.396 325.332 393.354 325.175 393.368 325.018C393.382 324.86 393.453 324.713 393.567 324.603L448.98 271.026C449.045 270.962 449.124 270.912 449.21 270.88C449.297 270.848 449.389 270.834 449.481 270.84C449.573 270.847 449.663 270.872 449.745 270.915C449.827 270.958 449.899 271.017 449.957 271.089L463.698 288.14C463.802 288.27 463.853 288.435 463.841 288.602C463.829 288.769 463.754 288.925 463.631 289.039L406.333 342.338C406.209 342.452 406.046 342.516 405.878 342.516ZM394.897 325.15L405.981 340.851L462.272 288.488L449.377 272.472L394.897 325.15Z" fill="#534CF7"/>
<path d="M405.878 341.853V379.946L382.205 379.921V341.916L394.027 325.068L405.878 341.853Z" fill="white"/>
<path d="M405.876 380.609L382.204 380.58C382.117 380.58 382.03 380.563 381.95 380.53C381.869 380.497 381.796 380.448 381.734 380.387C381.672 380.325 381.623 380.252 381.59 380.171C381.557 380.09 381.54 380.004 381.541 379.917V341.911C381.541 341.775 381.583 341.642 381.661 341.53L393.483 324.686C393.545 324.6 393.626 324.529 393.72 324.48C393.815 324.431 393.919 324.405 394.026 324.405C394.132 324.404 394.237 324.43 394.332 324.479C394.426 324.528 394.508 324.599 394.569 324.686L406.419 341.468C406.498 341.581 406.54 341.716 406.54 341.853V379.946C406.54 380.121 406.47 380.29 406.345 380.414C406.221 380.539 406.052 380.609 405.876 380.609ZM382.867 379.258L405.214 379.283V342.061L394.026 326.219L382.863 342.123L382.867 379.258Z" fill="#534CF7"/>
<path d="M413.07 351.566L423.997 341.17V332.348L413.07 342.69V351.566Z" fill="#534CF7"/>
<path d="M413.07 365.319L423.997 354.922V346.096L413.07 356.439V365.319Z" fill="#534CF7"/>
<path d="M430.324 335.153L441.255 324.757V315.931L430.324 326.273V335.153Z" fill="#534CF7"/>
<path d="M430.324 348.902L441.255 338.505V329.684L430.324 340.026V348.902Z" fill="#534CF7"/>
<path d="M447.512 318.877L458.439 308.481V299.655L447.512 309.997V318.877Z" fill="#534CF7"/>
<path d="M447.512 332.626L458.439 322.229V313.407L447.512 323.75V332.626Z" fill="#534CF7"/>
<path d="M303.443 365.712V336.23H348.625V365.799L303.443 365.712Z" fill="white"/>
<path d="M348.626 366.537L303.46 366.45L302.723 365.712V336.235L303.464 335.497H348.63L349.367 336.235V365.803L348.626 366.537ZM304.169 364.975L347.876 365.058V336.968H304.169V364.975Z" fill="#544DF7"/>
<path d="M316.731 316.034H360.848L348.62 336.819H303.053L316.731 316.034Z" fill="#6793D0"/>
<path d="M348.625 337.556H303.045L302.428 336.413L316.102 315.624L316.719 315.293H360.849L361.487 316.407L349.259 337.192L348.625 337.556ZM304.425 336.081H348.202L359.56 316.76H317.129L304.425 336.081Z" fill="#534CF7"/>
<path d="M370.416 346.159V320.224L360.62 315.657L348.625 336.231L348.086 365.849L370.416 346.159Z" fill="white"/>
<path d="M348.624 366.537L347.348 365.832L347.886 336.218L347.986 335.857L360.002 315.284H361.27L371.07 319.809L371.178 320.195V345.471L370.709 346.159L348.624 366.537ZM349.357 336.438L348.848 364.755L369.678 344.969L369.508 321.115L360.848 317.166L349.357 336.438Z" fill="#534CF7"/>
<path d="M362.443 343.341L356.066 345.533V336.5L362.443 334.304V343.341Z" fill="white"/>
<path d="M355.488 347.53L355.33 335.969L363.182 330.781V341.381L355.488 347.53ZM356.793 337.022V344.48L361.695 341.049V333.591L356.793 337.022Z" fill="#534CF7"/>
<path d="M316.467 351.508C316.467 349.2 317.384 346.987 319.015 345.355C320.647 343.723 322.861 342.806 325.168 342.806C327.476 342.806 329.689 343.723 331.321 345.355C332.953 346.987 333.87 349.2 333.87 351.508V365.712" fill="white"/>
<path d="M334.611 365.712H333.136V351.508C333.16 350.447 332.972 349.391 332.583 348.403C332.193 347.416 331.61 346.516 330.868 345.757C330.126 344.997 329.24 344.394 328.261 343.982C327.283 343.57 326.232 343.358 325.17 343.358C324.108 343.358 323.057 343.57 322.079 343.982C321.1 344.394 320.214 344.997 319.472 345.757C318.73 346.516 318.147 347.416 317.757 348.403C317.368 349.391 317.18 350.447 317.204 351.508H315.725C315.725 349.004 316.72 346.602 318.49 344.831C320.261 343.06 322.663 342.065 325.168 342.065C327.672 342.065 330.074 343.06 331.845 344.831C333.616 346.602 334.611 349.004 334.611 351.508V365.712Z" fill="#534CF7"/>
<path d="M317.2 351.504H315.725V365.315H317.2V351.504Z" fill="#544DF7"/>
<path d="M401.621 318.111L400.557 318.901L412.588 335.107L413.652 334.317L401.621 318.111Z" fill="#534CF7"/>
<path d="M409.934 310.056L408.871 310.849L421.078 327.203L422.141 326.41L409.934 310.056Z" fill="#534CF7"/>
<path d="M417.308 301.981L416.242 302.77L428.872 319.832L429.938 319.043L417.308 301.981Z" fill="#534CF7"/>
<path d="M425.618 293.934L424.557 294.729L437.396 311.867L438.457 311.072L425.618 293.934Z" fill="#534CF7"/>
<path d="M434.344 285.96L433.285 286.758L446.158 303.835L447.217 303.036L434.344 285.96Z" fill="#534CF7"/>
<path d="M443.292 277.933L442.23 278.728L454.962 295.74L456.023 294.945L443.292 277.933Z" fill="#534CF7"/>
</svg>
